# xmcd
#
# Track frame offsets:
#  150
#  21862
#  38917
#  56025
#  86025
#  104417
#  124958
#  142985
#  160546
#  178524
#  197676
#  211773
#  231605
#  249424
#  266146
#  281513
#
# Disc length: 4019 seconds
#
# Revision: 0
# Processed by: cddbd v1.5.1PL2 Copyright (c) Steve Scherf et al.
# Submitted via: Collectorz.com_Music_Collector 6.10
#
DISCID=e60fb110
DTITLE=N'Duccio - Rock Agricolo
DYEAR=1900
DGENRE=
TTITLE0=Non ancora lo so 
TTITLE1=Le donne 
TTITLE2=Bravo ti metto sei
TTITLE3=Papera 'mbusse 
TTITLE4=Giovanni Blouse 
TTITLE5=La cambagna 
TTITLE6=Signori' 
TTITLE7=Giovanni' 
TTITLE8=Cafune 
TTITLE9=La pettela 
TTITLE10=Storia agricola 
TTITLE11=Arcala da la pianta 
TTITLE12=Zi Peppe 
TTITLE13=Pay hard rock 
TTITLE14=Sott'a la capanne 
TTITLE15=Yes amore 
EXTD=
EXTT0=
EXTT1=
EXTT2=
EXTT3=
EXTT4=
EXTT5=
EXTT6=
EXTT7=
EXTT8=
EXTT9=
EXTT10=
EXTT11=
EXTT12=
EXTT13=
EXTT14=
EXTT15=
PLAYORDER=
